FFmpeg version SVN-r25716, Copyright (c) 2000-2010 the FFmpeg developers  built on Nov 10 2010 12:23:18 with gcc 4.1.2 20080704 (Red Hat 4.1.2-48)  configuration: --enable-libmp3lame --enable-shared --disable-mmx --arch=x86_64  libavutil     50.33. 0 / 50.33. 0  libavcore      0.12. 1 /  0.12. 1  libavcodec    52.94. 4 / 52.94. 4  libavformat   52.84. 0 / 52.84. 0  libavdevice   52. 2. 2 / 52. 2. 2  libavfilter    1.59. 0 /  1.59. 0  libswscale     0.12. 0 /  0.12. 0Input #0, avi, from '/RAID10/data/converted_video_files/11963.avi':  Duration: 00:00:16.88, start: 0.000000, bitrate: 6793 kb/s    Stream #0.0: Video: mpeg4, yuv420p, 720x480 [PAR 1:1 DAR 3:2], 25 tbr, 29.97 tbn, 25 tbc    Stream #0.1: Audio: pcm_s16le, 48000 Hz, 2 channels, s16, 1536 kb/s[buffer @ 0x1707c6b0] w:720 h:480 pixfmt:yuv420pOutput #0, flv, to '/RAID10/data/converted_video_files/11963.flv':  Metadata:    encoder         : Lavf52.84.0    Stream #0.0: Video: flv, yuv420p, 720x480 [PAR 1:1 DAR 3:2], q=2-31, 600 kb/s, 1k tbn, 24 tbc    Stream #0.1: Audio: libmp3lame, 22050 Hz, 2 channels, s16, 96 kb/sStream mapping:  Stream #0.0 -> #0.0  Stream #0.1 -> #0.1Press [q] to stop encodingframe=   44 fps=  0 q=3.5 size=     239kB time=1.87 bitrate=1046.5kbits/s dup=0 drop=11    frame=   91 fps= 87 q=3.4 size=     440kB time=3.83 bitrate= 939.9kbits/s dup=0 drop=22    frame=  139 fps= 90 q=3.9 size=     642kB time=5.83 bitrate= 901.8kbits/s dup=0 drop=34    frame=  188 fps= 92 q=6.5 size=     845kB time=7.87 bitrate= 879.3kbits/s dup=0 drop=47    frame=  237 fps= 92 q=9.8 size=    1077kB time=9.92 bitrate= 889.4kbits/s dup=0 drop=59    frame=  282 fps= 92 q=11.7 size=    1245kB time=11.79 bitrate= 865.2kbits/s dup=0 drop=70    frame=  323 fps= 91 q=18.0 size=    1408kB time=13.50 bitrate= 854.7kbits/s dup=0 drop=80    frame=  368 fps= 91 q=19.9 size=    1578kB time=15.37 bitrate= 841.0kbits/s dup=0 drop=92    frame=  405 fps= 91 q=20.1 Lsize=    1711kB time=16.92 bitrate= 828.7kbits/s dup=0 drop=101    video:1496kB audio:199kB global headers:0kB muxing overhead 0.990312%